<svg xmlns="http://www.w3.org/2000/svg" viewBox="0 0 64 64"><rect width="64" height="64" rx="18" fill="#155c38"/><path d="M0 18A18 18 0 0 1 18 0h28a18 18 0 0 1 18 18v6C44 30 22 36 0 44z" fill="#23955c"/><rect x="12" y="19" width="32" height="23" rx="4.5" fill="#fff"/><rect x="17" y="24.5" width="14" height="3.4" rx="1.7" fill="#1b7446"/><rect x="17" y="31" width="21" height="2.6" rx="1.3" fill="#a8dcbc"/><rect x="17" y="35.8" width="15" height="2.6" rx="1.3" fill="#a8dcbc"/><path d="M28 42.5v5.5M22 50h12" stroke="#fff" stroke-width="3.2" stroke-linecap="round"/><path d="M48 8.5l2.7 6.6 6.6 2.7-6.6 2.7-2.7 6.6-2.7-6.6-6.6-2.7 6.6-2.7z" fill="#fbbf24" stroke="#0f3d26" stroke-width="1.2" stroke-linejoin="round"/></svg>
